<svg xmlns="http://www.w3.org/2000/svg" xmlns:xlink="http://www.w3.org/1999/xlink" width="500" zoomAndPan="magnify" viewBox="0 0 375 374.999991" height="500" preserveAspectRatio="xMidYMid meet" version="1.0"><defs><clipPath id="e7c6373971"><path d="M 187.5 198.371094 L 204.214844 198.371094 L 204.214844 215.089844 L 187.5 215.089844 Z M 187.5 198.371094 " clip-rule="nonzero"/></clipPath><clipPath id="f215133289"><path d="M 195.859375 198.371094 C 191.242188 198.371094 187.5 202.113281 187.5 206.730469 C 187.5 211.347656 191.242188 215.089844 195.859375 215.089844 C 200.472656 215.089844 204.214844 211.347656 204.214844 206.730469 C 204.214844 202.113281 200.472656 198.371094 195.859375 198.371094 Z M 195.859375 198.371094 " clip-rule="nonzero"/></clipPath><clipPath id="e524b7c89e"><path d="M 91.171875 101.285156 L 283.921875 101.285156 L 283.921875 273.785156 L 91.171875 273.785156 Z M 91.171875 101.285156 " clip-rule="nonzero"/></clipPath></defs><g clip-path="url(#e7c6373971)"><g clip-path="url(#f215133289)"><path fill="#ffffff" d="M 187.5 198.371094 L 204.214844 198.371094 L 204.214844 215.089844 L 187.5 215.089844 Z M 187.5 198.371094 " fill-opacity="1" fill-rule="nonzero"/></g></g><g clip-path="url(#e524b7c89e)"><path fill="#007bff" d="M 229.03125 240.082031 L 177.175781 224.144531 L 159.976562 247.671875 L 126.59375 237.800781 L 91.175781 273.71875 L 124.058594 218.070312 L 149.101562 225.40625 L 168.578125 190.503906 L 219.421875 196.070312 L 242.441406 158.382812 C 242.441406 158.382812 235.109375 162.929688 220.6875 150.285156 C 220.6875 150.285156 234.09375 145.222656 248.003906 148.890625 L 283.792969 165.207031 L 275.574219 177.097656 L 254.253906 177.523438 Z M 248.074219 208.335938 L 234.601562 240.070312 L 250.664062 238.804688 L 238.269531 273.71875 L 280.410156 212.851562 Z M 179.265625 231.328125 L 162.824219 253.589844 L 138.542969 246.253906 L 112.996094 273.71875 L 141.835938 256.121094 L 169.148438 264.464844 L 196.722656 235.125 Z M 255.300781 147.574219 L 254.476562 137.257812 L 226.316406 124.671875 L 228.863281 106.601562 L 188.902344 101.285156 L 217.230469 113.179688 L 211.195312 131.183594 Z M 252.550781 162.460938 L 266.878906 162.925781 L 252.082031 156.539062 Z M 252.550781 162.460938 " fill-opacity="1" fill-rule="evenodd"/></g></svg>